<svg width="697" height="170" viewBox="0 0 697 170" fill="none" xmlns="http://www.w3.org/2000/svg">
<g clip-path="url(#clip0_218_85)">
<rect width="697" height="170" fill="white"/>
<path d="M9.90767 124V42.1818H28.3381V56.0845H29.2969C31.0014 51.397 33.8246 47.7393 37.7663 45.1115C41.7081 42.4482 46.4134 41.1165 51.8821 41.1165C57.4219 41.1165 62.0916 42.4659 65.8913 45.1648C69.7266 47.8281 72.4254 51.468 73.9879 56.0845H74.8402C76.6513 51.5391 79.7053 47.9169 84.0021 45.218C88.3345 42.4837 93.4659 41.1165 99.3963 41.1165C106.925 41.1165 113.068 43.4957 117.827 48.2543C122.585 53.0128 124.964 59.9553 124.964 69.0817V124H105.629V72.0646C105.629 66.9865 104.279 63.2756 101.58 60.9318C98.8814 58.5526 95.5788 57.3629 91.6726 57.3629C87.0206 57.3629 83.3807 58.8189 80.7528 61.7308C78.1605 64.6072 76.8643 68.3537 76.8643 72.9702V124H57.9545V71.2656C57.9545 67.0398 56.6761 63.6662 54.1193 61.1449C51.598 58.6236 48.2955 57.3629 44.2116 57.3629C41.4418 57.3629 38.9205 58.0732 36.6477 59.4936C34.375 60.8786 32.5639 62.8494 31.2145 65.4062C29.8651 67.9276 29.1903 70.875 29.1903 74.2486V124H9.90767ZM163.571 125.651C158.386 125.651 153.716 124.728 149.562 122.881C145.442 120.999 142.175 118.229 139.76 114.572C137.381 110.914 136.192 106.404 136.192 101.042C136.192 96.4254 137.044 92.608 138.748 89.5895C140.453 86.571 142.779 84.1562 145.726 82.3452C148.674 80.5341 151.994 79.1669 155.687 78.2436C159.416 77.2848 163.269 76.5923 167.246 76.1662C172.04 75.669 175.929 75.2251 178.912 74.8345C181.895 74.4084 184.061 73.7692 185.41 72.9169C186.795 72.0291 187.488 70.6619 187.488 68.8153V68.4957C187.488 64.483 186.298 61.3757 183.919 59.174C181.54 56.9723 178.113 55.8714 173.638 55.8714C168.915 55.8714 165.169 56.9013 162.399 58.9609C159.665 61.0206 157.818 63.4531 156.859 66.2585L138.855 63.7017C140.275 58.7301 142.619 54.5753 145.886 51.2372C149.153 47.8636 153.148 45.3423 157.871 43.6733C162.594 41.9688 167.814 41.1165 173.532 41.1165C177.474 41.1165 181.398 41.5781 185.304 42.5014C189.21 43.4247 192.779 44.9517 196.01 47.0824C199.242 49.1776 201.834 52.0362 203.787 55.6584C205.776 59.2805 206.77 63.8082 206.77 69.2415V124H188.233V112.761H187.594C186.422 115.033 184.771 117.164 182.64 119.153C180.545 121.106 177.9 122.686 174.704 123.893C171.543 125.065 167.832 125.651 163.571 125.651ZM168.578 111.482C172.449 111.482 175.805 110.719 178.645 109.192C181.486 107.629 183.67 105.57 185.197 103.013C186.76 100.456 187.541 97.6683 187.541 94.6499V85.0085C186.937 85.5057 185.907 85.9673 184.452 86.3935C183.031 86.8196 181.433 87.1925 179.657 87.5121C177.882 87.8317 176.124 88.1158 174.384 88.3643C172.644 88.6129 171.135 88.826 169.856 89.0035C166.98 89.3942 164.405 90.0334 162.133 90.9212C159.86 91.8089 158.067 93.0518 156.753 94.6499C155.439 96.2124 154.782 98.2365 154.782 100.722C154.782 104.273 156.078 106.955 158.67 108.766C161.263 110.577 164.565 111.482 168.578 111.482ZM262.515 42.1818V57.0966H215.481V42.1818H262.515ZM227.093 22.5795H246.376V99.3906C246.376 101.983 246.766 103.972 247.547 105.357C248.364 106.706 249.43 107.629 250.743 108.126C252.057 108.624 253.513 108.872 255.111 108.872C256.319 108.872 257.42 108.783 258.414 108.606C259.444 108.428 260.225 108.268 260.758 108.126L264.007 123.201C262.977 123.556 261.503 123.947 259.586 124.373C257.704 124.799 255.395 125.048 252.661 125.119C247.831 125.261 243.481 124.533 239.611 122.935C235.74 121.301 232.668 118.78 230.395 115.371C228.158 111.962 227.057 107.7 227.093 102.587V22.5795ZM276.752 124V14.9091H296.035V55.7116H296.834C297.828 53.723 299.231 51.6101 301.042 49.3729C302.853 47.1001 305.303 45.1648 308.393 43.5668C311.482 41.9332 315.424 41.1165 320.218 41.1165C326.539 41.1165 332.239 42.7322 337.317 45.9638C342.43 49.1598 346.479 53.9006 349.462 60.1861C352.48 66.4361 353.989 74.1065 353.989 83.1974C353.989 92.1818 352.516 99.8168 349.568 106.102C346.621 112.388 342.608 117.182 337.53 120.484C332.452 123.787 326.699 125.438 320.271 125.438C315.584 125.438 311.695 124.657 308.606 123.094C305.516 121.532 303.031 119.65 301.148 117.448C299.302 115.211 297.864 113.098 296.834 111.109H295.715V124H276.752ZM295.662 83.0909C295.662 88.3821 296.408 93.0163 297.899 96.9936C299.426 100.971 301.61 104.078 304.451 106.315C307.327 108.517 310.808 109.618 314.891 109.618C319.153 109.618 322.722 108.482 325.598 106.209C328.474 103.901 330.641 100.758 332.097 96.7805C333.588 92.7678 334.334 88.2045 334.334 83.0909C334.334 78.0128 333.606 73.5028 332.15 69.5611C330.694 65.6193 328.528 62.5298 325.651 60.2926C322.775 58.0554 319.188 56.9368 314.891 56.9368C310.772 56.9368 307.274 58.0199 304.398 60.1861C301.521 62.3523 299.337 65.3885 297.846 69.2947C296.39 73.201 295.662 77.7997 295.662 83.0909ZM418.031 89.5895V42.1818H437.313V124H418.617V109.458H417.764C415.918 114.039 412.882 117.786 408.656 120.697C404.465 123.609 399.298 125.065 393.155 125.065C387.793 125.065 383.052 123.876 378.933 121.496C374.849 119.082 371.653 115.584 369.345 111.003C367.036 106.386 365.882 100.811 365.882 94.277V42.1818H385.165V91.294C385.165 96.4787 386.585 100.598 389.426 103.652C392.267 106.706 395.996 108.233 400.612 108.233C403.453 108.233 406.205 107.54 408.869 106.156C411.532 104.771 413.716 102.711 415.421 99.9766C417.161 97.2067 418.031 93.7443 418.031 89.5895Z" fill="black"/>
<path opacity="0.8" d="M458.082 124.799C455.987 124.799 454.175 124.053 452.648 122.562C451.157 121.035 450.411 119.224 450.411 117.129C450.411 114.998 451.157 113.187 452.648 111.695C454.175 110.204 455.987 109.458 458.082 109.458C460.212 109.458 462.023 110.204 463.515 111.695C465.006 113.187 465.752 114.998 465.752 117.129C465.752 118.513 465.397 119.792 464.687 120.964C464.012 122.136 463.089 123.077 461.917 123.787C460.781 124.462 459.502 124.799 458.082 124.799ZM498.653 125.864C493.716 125.864 489.206 124.906 485.123 122.988C481.039 121.035 477.79 118.229 475.375 114.572C472.96 110.879 471.753 106.404 471.753 101.148C471.753 97.1001 472.516 93.6911 474.043 90.9212C475.57 88.1513 477.736 85.8786 480.542 84.103C483.347 82.3274 486.667 80.9247 490.503 79.8949C494.338 78.8651 498.564 78.066 503.18 77.4979C507.761 76.9297 511.632 76.4325 514.792 76.0064C517.988 75.5803 520.421 74.9055 522.09 73.9822C523.759 73.0589 524.594 71.5675 524.594 69.5078V67.5902C524.594 62.0149 522.925 57.6293 519.586 54.4332C516.284 51.2017 511.525 49.5859 505.311 49.5859C499.416 49.5859 494.604 50.8821 490.876 53.4744C487.182 56.0668 484.59 59.1207 483.099 62.6364L474.096 59.3871C475.943 54.9126 478.5 51.3437 481.767 48.6804C485.034 45.9815 488.692 44.0462 492.74 42.8743C496.788 41.6669 500.89 41.0632 505.045 41.0632C508.17 41.0632 511.419 41.4716 514.792 42.2884C518.202 43.1051 521.362 44.5256 524.274 46.5497C527.186 48.5384 529.547 51.326 531.358 54.9126C533.17 58.4638 534.075 62.9737 534.075 68.4425V124H524.594V111.056H524.008C522.871 113.471 521.184 115.815 518.947 118.087C516.71 120.36 513.905 122.224 510.531 123.68C507.157 125.136 503.198 125.864 498.653 125.864ZM499.931 117.182C504.974 117.182 509.341 116.063 513.035 113.826C516.728 111.589 519.569 108.624 521.557 104.93C523.582 101.202 524.594 97.1001 524.594 92.6257V80.8004C523.883 81.4751 522.694 82.0788 521.025 82.6115C519.391 83.1442 517.491 83.6236 515.325 84.0497C513.194 84.4403 511.064 84.7777 508.933 85.0618C506.802 85.3459 504.885 85.5945 503.18 85.8075C498.564 86.3757 494.622 87.2635 491.355 88.4709C488.088 89.6783 485.584 91.3473 483.844 93.478C482.104 95.5732 481.234 98.272 481.234 101.575C481.234 106.546 483.01 110.399 486.561 113.134C490.112 115.832 494.569 117.182 499.931 117.182ZM544.297 154.682V42.1818H553.512V57.7891H554.631C555.767 55.3388 557.33 52.8352 559.318 50.2784C561.307 47.6861 563.935 45.5021 567.202 43.7266C570.504 41.951 574.659 41.0632 579.666 41.0632C586.414 41.0632 592.308 42.8388 597.351 46.3899C602.429 49.9055 606.371 54.8416 609.176 61.1982C612.017 67.5192 613.438 74.8878 613.438 83.304C613.438 91.7557 612.017 99.1598 609.176 105.516C606.371 111.873 602.429 116.827 597.351 120.378C592.308 123.929 586.449 125.705 579.773 125.705C574.837 125.705 570.7 124.817 567.362 123.041C564.059 121.266 561.378 119.082 559.318 116.489C557.294 113.862 555.732 111.305 554.631 108.819H553.779V154.682H544.297ZM553.672 83.1442C553.672 89.7493 554.649 95.6087 556.602 100.722C558.59 105.8 561.431 109.795 565.124 112.707C568.853 115.584 573.363 117.022 578.654 117.022C584.088 117.022 588.669 115.531 592.397 112.548C596.161 109.529 599.02 105.463 600.973 100.349C602.962 95.2358 603.956 89.5007 603.956 83.1442C603.956 76.8587 602.98 71.1946 601.026 66.152C599.109 61.1094 596.268 57.1143 592.504 54.1669C588.74 51.1839 584.123 49.6925 578.654 49.6925C573.328 49.6925 568.8 51.1307 565.071 54.0071C561.343 56.848 558.502 60.7898 556.548 65.8324C554.631 70.8395 553.672 76.6101 553.672 83.1442ZM619.238 154.682V42.1818H628.454V57.7891H629.572C630.709 55.3388 632.271 52.8352 634.26 50.2784C636.248 47.6861 638.876 45.5021 642.143 43.7266C645.446 41.951 649.601 41.0632 654.608 41.0632C661.355 41.0632 667.25 42.8388 672.292 46.3899C677.371 49.9055 681.312 54.8416 684.118 61.1982C686.959 67.5192 688.379 74.8878 688.379 83.304C688.379 91.7557 686.959 99.1598 684.118 105.516C681.312 111.873 677.371 116.827 672.292 120.378C667.25 123.929 661.39 125.705 654.714 125.705C649.778 125.705 645.641 124.817 642.303 123.041C639.001 121.266 636.319 119.082 634.26 116.489C632.236 113.862 630.673 111.305 629.572 108.819H628.72V154.682H619.238ZM628.613 83.1442C628.613 89.7493 629.59 95.6087 631.543 100.722C633.532 105.8 636.373 109.795 640.066 112.707C643.795 115.584 648.305 117.022 653.596 117.022C659.029 117.022 663.61 115.531 667.339 112.548C671.103 109.529 673.961 105.463 675.915 100.349C677.903 95.2358 678.898 89.5007 678.898 83.1442C678.898 76.8587 677.921 71.1946 675.968 66.152C674.05 61.1094 671.209 57.1143 667.445 54.1669C663.681 51.1839 659.064 49.6925 653.596 49.6925C648.269 49.6925 643.741 51.1307 640.013 54.0071C636.284 56.848 633.443 60.7898 631.49 65.8324C629.572 70.8395 628.613 76.6101 628.613 83.1442Z" fill="black"/>
</g>
<defs>
<clipPath id="clip0_218_85">
<rect width="697" height="170" fill="white"/>
</clipPath>
</defs>
</svg>
